<svg width="409" height="400" viewBox="0 0 409 400" fill="none" xmlns="http://www.w3.org/2000/svg">
<path d="M313.011 57.5688C352.274 84.9038 390.791 114.724 398.992 151.253C407.192 188.031 385.076 232.016 367.681 274.758C350.037 317.251 336.867 358.751 308.538 377.885C280.209 397.02 236.97 394.038 198.452 387.08C159.935 380.37 126.387 369.685 91.1003 352.787C55.8133 335.889 18.5383 312.778 10.0893 281.716C1.39184 250.405 21.5203 210.893 39.6608 175.606C57.5528 140.319 73.4568 109.008 98.8038 76.9518C124.151 44.8953 158.941 12.0933 196.216 8.36582C233.491 4.63832 273.499 29.9853 313.011 57.5688Z" fill="#506172"/>
<path fill-rule="evenodd" clip-rule="evenodd" d="M316.485 53.2209L316.483 53.2195C295.913 38.8708 275.33 25.1874 255.083 15.5686C234.831 5.9477 215.096 0.482594 196.2 2.37074C177.298 4.25947 158.885 13.5353 141.839 26.5977C124.806 39.6507 109.265 56.3879 96.1282 72.9893C69.874 106.167 53.3934 138.576 34.754 175.309L34.7489 175.319C25.2905 193.703 15.3991 213.03 8.9852 231.808C2.56455 250.606 -0.265882 268.566 4.10269 284.281L4.10557 284.291C8.34457 299.864 19.8758 313.626 35.1214 325.755C50.3463 337.868 69.0817 348.2 87.4009 356.966C123.981 374.469 158.741 385.533 198.673 392.483L198.685 392.485C218.678 396.094 239.799 398.653 259.547 397.853C279.308 397.053 297.525 392.897 311.85 383.228C326.175 373.561 336.789 358.155 346.148 339.451C352.803 326.151 358.746 311.357 364.938 295.939C367.465 289.648 370.034 283.253 372.71 276.813C375.145 270.835 377.659 264.854 380.17 258.883C387.042 242.535 393.881 226.267 398.952 210.384C405.869 188.715 409.366 168.117 405.213 149.501C401.063 131.028 389.199 114.094 373.118 98.1537C357.045 82.2215 336.921 67.4372 316.485 53.2209ZM407.165 149.063C414.565 182.229 398.255 221.027 381.982 259.734C379.478 265.69 376.974 271.645 374.559 277.576C371.905 283.962 369.349 290.327 366.828 296.603C351.894 333.781 338.209 367.851 312.969 384.886C283.468 404.797 238.441 401.694 198.33 394.454C158.219 387.472 123.284 376.353 86.5377 358.77C49.7911 341.187 10.9742 317.139 2.17576 284.817C-6.8815 252.236 14.0796 211.122 32.9704 174.404C51.6025 137.686 68.1644 105.105 94.5598 71.7482C120.955 38.3916 157.184 4.25932 196.001 0.380652C234.818 -3.49802 276.481 22.8769 317.627 51.5791C358.514 80.0227 398.625 111.052 407.165 149.063Z" fill="#506172"/>
</svg>
