<svg width="137" height="38" viewBox="0 0 137 38" fill="none" xmlns="http://www.w3.org/2000/svg">
<path fill-rule="evenodd" clip-rule="evenodd" d="M135.463 17.0717C136.179 18.0528 136.179 19.3742 135.463 20.3552L125.957 33.374L123.524 31.6541L132.973 18.7135L123.524 5.77283L125.957 4.05293L135.463 17.0717Z" fill="#1A2A54"/>
<path fill-rule="evenodd" clip-rule="evenodd" d="M111.037 32.2699L118.663 3.99886L121.558 4.75501L113.932 33.0261L111.037 32.2699Z" fill="#1A2A54"/>
<path fill-rule="evenodd" clip-rule="evenodd" d="M1.53562 20.3812C0.821461 19.4011 0.821458 18.0822 1.53562 17.1021L11.0436 4.05409L13.4783 5.77167L4.0272 18.7417L13.4783 31.7117L11.0436 33.4292L1.53562 20.3812Z" fill="#1A2A54"/>
<path fill-rule="evenodd" clip-rule="evenodd" d="M126.184 34.759L122.117 31.8845L131.734 18.7135L122.31 5.80662L114.64 34.2443L109.809 32.9828L117.955 2.78066L122.786 4.04216L122.444 5.31169L126.184 2.66791L136.27 16.482C137.243 17.8143 137.243 19.6126 136.27 20.9449L126.184 34.759ZM132.973 18.7135L123.524 31.6541L125.957 33.374L135.463 20.3552C136.179 19.3742 136.179 18.0528 135.463 17.0717L125.957 4.05293L123.524 5.77283L132.973 18.7135ZM10.8153 2.66928L14.8845 5.53991L5.26453 18.7417L14.8845 31.9434L10.8153 34.8141L0.727431 20.9701C-0.242475 19.6391 -0.242479 17.8443 0.72743 16.5132L10.8153 2.66928ZM4.0272 18.7417L13.4783 5.77167L11.0436 4.05409L1.53562 17.1021C0.821458 18.0822 0.821461 19.4011 1.53562 20.3812L11.0436 33.4292L13.4783 31.7117L4.0272 18.7417ZM111.037 32.2699L113.932 33.0261L121.558 4.75501L118.663 3.99886L111.037 32.2699Z" fill="#1A2A54"/>
<path d="M27.432 30V7.6H35.752C37.3307 7.6 38.728 7.90933 39.944 8.528C41.16 9.14667 42.1093 10 42.792 11.088C43.4747 12.1547 43.816 13.4027 43.816 14.832C43.816 16.24 43.4533 17.4987 42.728 18.608C42.024 19.696 41.0533 20.5493 39.816 21.168C38.5787 21.7653 37.1707 22.064 35.592 22.064H31.816V30H27.432ZM39.752 30L34.568 21.008L37.928 18.608L44.712 30H39.752ZM31.816 18.064H35.784C36.4453 18.064 37.032 17.9253 37.544 17.648C38.0773 17.3707 38.4933 16.9867 38.792 16.496C39.112 16.0053 39.272 15.4507 39.272 14.832C39.272 13.872 38.92 13.0933 38.216 12.496C37.5333 11.8987 36.648 11.6 35.56 11.6H31.816V18.064ZM66.32 30.384C64.144 30.384 62.2133 29.8933 60.528 28.912C58.8427 27.9093 57.52 26.544 56.56 24.816C55.6 23.0667 55.12 21.0613 55.12 18.8C55.12 16.5387 55.6 14.544 56.56 12.816C57.52 11.0667 58.832 9.70133 60.496 8.72C62.1813 7.71733 64.112 7.216 66.288 7.216C67.824 7.216 69.2533 7.49333 70.576 8.048C71.8987 8.58133 73.0507 9.33867 74.032 10.32C75.0347 11.28 75.8027 12.3893 76.336 13.648L72.272 15.152C71.9093 14.3627 71.4293 13.68 70.832 13.104C70.2347 12.5067 69.552 12.048 68.784 11.728C68.016 11.3867 67.184 11.216 66.288 11.216C64.9867 11.216 63.824 11.5467 62.8 12.208C61.7973 12.848 61.008 13.7333 60.432 14.864C59.8773 15.9947 59.6 17.3067 59.6 18.8C59.6 20.2933 59.888 21.616 60.464 22.768C61.04 23.8987 61.84 24.7947 62.864 25.456C63.888 26.096 65.0613 26.416 66.384 26.416C67.3013 26.416 68.1333 26.2453 68.88 25.904C69.648 25.5413 70.32 25.0507 70.896 24.432C71.4933 23.8133 71.9733 23.0987 72.336 22.288L76.4 23.76C75.8667 25.0613 75.0987 26.2133 74.096 27.216C73.1147 28.2187 71.9627 28.9973 70.64 29.552C69.3173 30.1067 67.8773 30.384 66.32 30.384ZM94.3715 30V7.6H98.7555V30H94.3715ZM79.6195 30V7.568H84.0035V30H79.6195ZM82.8835 20.56V16.528H96.4515V20.56H82.8835Z" fill="#1A2A54"/>
<path d="M47.705 30V14H51.929V30H47.705ZM49.817 11.408C49.177 11.408 48.6117 11.1733 48.121 10.704C47.6303 10.2133 47.385 9.63733 47.385 8.976C47.385 8.31467 47.6303 7.74933 48.121 7.28C48.6117 6.78933 49.177 6.544 49.817 6.544C50.4783 6.544 51.0437 6.78933 51.513 7.28C52.0037 7.74933 52.249 8.31467 52.249 8.976C52.249 9.63733 52.0037 10.2133 51.513 10.704C51.0437 11.1733 50.4783 11.408 49.817 11.408Z" fill="#FC5555"/>
</svg>
